<svg width="24" height="24" viewBox="0 0 24 24" fill="none" xmlns="http://www.w3.org/2000/svg">
<path d="M3.5625 2.10942C3.99272 2.45221 4.37261 2.86581 4.76081 3.25427C4.83435 3.32769 4.9079 3.4011 4.98146 3.4745C5.1827 3.67537 5.3838 3.87638 5.58487 4.07741C5.77973 4.2722 5.9747 4.46687 6.16966 4.66155C6.69131 5.18245 7.21272 5.70358 7.73411 6.22474C7.98082 6.47134 8.22756 6.71792 8.47431 6.96449C9.31932 7.8089 10.1643 8.65336 11.0091 9.498C11.062 9.55094 11.115 9.60388 11.1679 9.65682C11.221 9.70989 11.2741 9.76296 11.3272 9.81603C11.4337 9.92248 11.5401 10.0289 11.6466 10.1354C11.673 10.1618 11.6994 10.1882 11.7266 10.2154C12.5836 11.0722 13.4408 11.9287 14.2983 12.785C15.2054 13.691 16.1122 14.5972 17.0188 15.5037C17.1182 15.6031 17.2177 15.7026 17.3172 15.802C17.3417 15.8265 17.3661 15.851 17.3914 15.8763C17.7856 16.2704 18.18 16.6643 18.5746 17.0582C18.9708 17.4537 19.3668 17.8496 19.7625 18.2456C19.9769 18.4602 20.1914 18.6747 20.4062 18.8889C20.6028 19.0848 20.799 19.2811 20.995 19.4776C21.066 19.5488 21.1371 19.6198 21.2084 19.6906C21.3052 19.7869 21.4015 19.8835 21.4977 19.9803C21.5255 20.0078 21.5534 20.0353 21.5821 20.0637C21.8508 20.3357 22.0172 20.6016 22.043 20.9883C22.0383 21.3003 21.9243 21.5757 21.7031 21.7969C21.4145 21.9965 21.162 22.0639 20.8125 22.0313C20.1825 21.8789 19.6959 21.1995 19.2565 20.7543C19.0973 20.5931 18.9376 20.4323 18.7779 20.2716C18.4815 19.973 18.1853 19.6743 17.8899 19.3748C17.6835 19.1656 17.4765 18.957 17.2691 18.7488C17.1903 18.6694 17.1117 18.5898 17.0333 18.51C16.9243 18.399 16.8145 18.2888 16.7046 18.1787C16.6722 18.1455 16.6399 18.1122 16.6066 18.078C16.5766 18.0483 16.5467 18.0186 16.5158 17.988C16.49 17.9619 16.4641 17.9357 16.4375 17.9088C16.3608 17.8487 16.3608 17.8487 16.2619 17.8721C16.1616 17.9102 16.067 17.9535 15.9712 18.0019C13.8516 19.0529 11.6539 19.3431 9.38727 18.5831C8.01389 18.1053 6.77768 17.346 5.67188 16.4063C5.62553 16.368 5.57918 16.3298 5.53143 16.2904C4.8825 15.753 4.24478 15.1769 3.69562 14.5368C3.60061 14.4275 3.50246 14.3214 3.4043 14.2149C2.79584 13.5369 2.34565 12.8132 2.37433 11.8704C2.46405 11.0357 2.8262 10.4566 3.375 9.8438C3.41095 9.80319 3.44691 9.76259 3.48395 9.72075C3.58747 9.60478 3.69202 9.48982 3.79688 9.37505C3.83888 9.32867 3.88087 9.28228 3.92285 9.23589C4.26855 8.85491 4.61966 8.48339 5.0105 8.14806C5.16474 8.01467 5.31503 7.87693 5.46588 7.73973C5.79058 7.45317 5.79058 7.45317 5.90625 7.45317C5.69161 7.20205 5.4691 6.96302 5.23404 6.73099C5.20137 6.69855 5.16871 6.6661 5.13505 6.63267C5.06479 6.5629 4.99448 6.49319 4.92413 6.42352C4.81265 6.31308 4.70137 6.20245 4.59014 6.09177C4.27412 5.77731 3.9579 5.46306 3.6412 5.14928C3.44692 4.95676 3.25298 4.7639 3.05925 4.57082C2.98562 4.49756 2.91185 4.42443 2.83796 4.35144C2.73465 4.24938 2.63179 4.14689 2.52902 4.04429C2.49865 4.0145 2.46828 3.98471 2.43699 3.95401C2.15949 3.67527 1.98363 3.41075 1.95703 3.01177C1.96168 2.69978 2.0757 2.42435 2.29688 2.20317C2.68803 1.93266 3.13675 1.8644 3.5625 2.10942ZM7.05762 9.11431C7.02777 9.14005 6.99793 9.16579 6.96717 9.19231C6.71987 9.40618 6.47582 9.62333 6.23438 9.8438C6.18458 9.88866 6.13477 9.93352 6.08496 9.97838C5.81078 10.2267 5.54945 10.4785 5.30585 10.7575C5.19195 10.8878 5.07457 11.0146 4.95703 11.1416C4.59416 11.533 4.59416 11.533 4.44141 12.0325C4.46902 12.2875 4.62311 12.4693 4.79297 12.6504C4.83067 12.6912 4.86838 12.7319 4.90723 12.7739C4.96088 12.8317 4.96088 12.8317 5.01562 12.8907C5.06667 12.949 5.11747 13.0076 5.16797 13.0665C5.67133 13.6459 5.67133 13.6459 6.23181 14.1682C6.35309 14.2713 6.4673 14.381 6.58301 14.4903C7.78222 15.6025 9.26892 16.5181 10.875 16.875C10.9387 16.8908 10.9387 16.8908 11.0037 16.9069C12.2634 17.1738 13.6237 16.8624 14.7656 16.3125C14.6878 16.1108 14.5355 15.9758 14.3851 15.8267C14.3554 15.7968 14.3257 15.767 14.295 15.7363C14.1953 15.6362 14.0951 15.5365 13.995 15.4368C13.9235 15.3652 13.852 15.2936 13.7805 15.222C13.5861 15.0274 13.3915 14.8331 13.1968 14.6389C12.9934 14.4359 12.7902 14.2327 12.5871 14.0295C12.2459 13.6884 11.9046 13.3475 11.5632 13.0067C11.1678 12.6121 10.7727 12.2172 10.3777 11.8222C9.99838 11.4428 9.61888 11.0636 9.23931 10.6844C9.07747 10.5227 8.91567 10.361 8.7539 10.1993C8.56368 10.0091 8.37334 9.81903 8.18291 9.62907C8.11282 9.55911 8.04277 9.48912 7.97276 9.41908C7.87764 9.32394 7.78238 9.22895 7.68709 9.13399C7.65902 9.10585 7.63095 9.07771 7.60203 9.04871C7.33992 8.78816 7.31462 8.8917 7.05762 9.11431Z" fill="#737373"/>
<path d="M18.2813 7.54691C18.3201 7.57909 18.3201 7.57909 18.3597 7.61191C19.0448 8.1809 19.7239 8.78667 20.3044 9.46329C20.3994 9.57262 20.4975 9.67869 20.5957 9.78519C21.2042 10.4632 21.6544 11.1869 21.6257 12.1297C21.536 12.9644 21.1738 13.5435 20.625 14.1563C20.589 14.1969 20.5531 14.2375 20.5161 14.2793C20.4484 14.3551 20.3804 14.4305 20.3119 14.5055C20.2316 14.5938 20.1524 14.6826 20.0739 14.7724C20.0291 14.8229 19.9843 14.8734 19.9395 14.9239C19.8992 14.9697 19.859 15.0155 19.8175 15.0627C19.5679 15.3024 19.3234 15.4102 18.9771 15.4292C18.7127 15.4147 18.485 15.3328 18.2866 15.1553C18.0708 14.9129 17.986 14.7288 17.9824 14.3995C17.9811 14.344 17.9798 14.2886 17.9784 14.2315C18.0213 13.8957 18.2249 13.6763 18.4512 13.4414C18.5012 13.3884 18.5512 13.3353 18.6011 13.2821C18.6261 13.2559 18.651 13.2296 18.6766 13.2025C18.8608 13.0079 19.0417 12.8105 19.2188 12.6094C19.2581 12.5648 19.2581 12.5648 19.2982 12.5193C19.4576 12.3208 19.5274 12.1122 19.5 11.8594C19.4158 11.6565 19.3098 11.5092 19.1602 11.3496C19.1225 11.309 19.0849 11.2683 19.0461 11.2264C19.0103 11.1878 18.9744 11.1492 18.9375 11.1094C18.8855 11.0501 18.8337 10.9905 18.7822 10.9307C18.3031 10.3786 18.3031 10.3786 17.7698 9.88041C17.6481 9.77666 17.5333 9.66648 17.417 9.55668C16.2268 8.45283 14.7267 7.50894 13.125 7.17191C13.088 7.16346 13.0511 7.15501 13.013 7.14631C12.5061 7.04413 11.9931 7.0735 11.4789 7.08362C11.3544 7.08589 11.2299 7.08728 11.1053 7.0886C11.0676 7.08962 11.0298 7.09064 10.9908 7.09169C10.6983 7.09426 10.5118 7.02546 10.2832 6.835C10.045 6.55287 9.95062 6.311 9.96662 5.93796C10.0121 5.61707 10.1673 5.41701 10.4119 5.21378C12.637 3.76127 16.632 6.16475 18.2813 7.54691Z" fill="#737373"/>
<path d="M9.58008 11.8388C9.90313 12.0337 10.0384 12.2791 10.1689 12.6269C10.3594 13.1327 10.6309 13.4732 11.1094 13.7344C11.2282 13.7839 11.3488 13.8279 11.4697 13.872C11.8178 13.9998 12.0325 14.1656 12.1943 14.5023C12.2864 14.7843 12.2832 15.1189 12.1641 15.3926C12.0129 15.649 11.7826 15.7966 11.5137 15.9111C10.8877 16.0082 10.2668 15.7068 9.75 15.375C9.57077 15.2421 9.40135 15.101 9.23438 14.9531C9.20453 14.9272 9.17468 14.9013 9.14392 14.8745C8.59413 14.364 8.09363 13.5244 8.05646 12.7676C8.07086 12.4813 8.15505 12.2635 8.34375 12.0469C8.68665 11.7446 9.15126 11.6448 9.58008 11.8388Z" fill="#737373"/>
</svg>
