<svg width="24" height="24" viewBox="0 0 24 24" fill="none" xmlns="http://www.w3.org/2000/svg">
<path d="M18.2812 7.54691C18.3201 7.57909 18.3201 7.57909 18.3597 7.61191C19.0448 8.1809 19.7239 8.78667 20.3044 9.46329C20.3994 9.57262 20.4975 9.67869 20.5957 9.78519C21.2042 10.4632 21.6544 11.1869 21.6257 12.1297C21.5359 12.9644 21.1738 13.5435 20.625 14.1563C20.589 14.1969 20.5531 14.2375 20.5161 14.2793C20.4125 14.3953 20.308 14.5103 20.2031 14.625C20.1611 14.6714 20.1191 14.7178 20.0771 14.7642C19.7357 15.1405 19.3896 15.5102 19.0031 15.841C18.9136 15.9178 18.8253 15.9953 18.7372 16.0736C16.7561 17.8258 14.2475 19.1876 11.5312 19.0313C8.4679 18.781 5.65553 16.8211 3.69562 14.5368C3.60061 14.4274 3.50246 14.3214 3.4043 14.2149C2.79584 13.5368 2.34565 12.8132 2.37433 11.8704C2.46405 11.0357 2.8262 10.4566 3.375 9.84379C3.41095 9.80318 3.44691 9.76257 3.48395 9.72074C3.58747 9.60476 3.69202 9.48981 3.79688 9.37504C3.83888 9.32866 3.88087 9.28227 3.92285 9.23588C4.26434 8.85953 4.61038 8.48983 4.99695 8.15903C5.08635 8.0823 5.17474 8.00473 5.26282 7.92649C6.43452 6.89017 7.73083 6.05994 9.1875 5.48441C9.23355 5.46602 9.23355 5.46602 9.28054 5.44726C12.4446 4.21066 15.8038 5.47062 18.2812 7.54691ZM8.90625 7.87504C8.87495 7.89166 8.84365 7.90828 8.8114 7.92541C8.16956 8.26708 7.59006 8.67512 7.03125 9.14066C7.00786 9.16007 6.98447 9.17948 6.96036 9.19948C6.6162 9.48617 6.28319 9.78392 5.95605 10.0899C5.92336 10.1203 5.89067 10.1507 5.85698 10.1821C5.66896 10.3595 5.49453 10.5434 5.3263 10.7397C5.21637 10.8672 5.10125 10.9893 4.98633 11.1123C4.60445 11.5151 4.60445 11.5151 4.44141 12.0324C4.46902 12.2875 4.62311 12.4693 4.79297 12.6504C4.83067 12.6912 4.86838 12.7319 4.90723 12.7738C4.96088 12.8317 4.96088 12.8317 5.01562 12.8907C5.06667 12.949 5.11747 13.0076 5.16797 13.0664C5.67133 13.6459 5.67133 13.6459 6.23181 14.1682C6.35309 14.2713 6.4673 14.381 6.58301 14.4903C7.78222 15.6025 9.26892 16.5181 10.875 16.875C10.9387 16.8908 10.9387 16.8908 11.0037 16.9069C12.4084 17.2045 13.8618 16.7924 15.0937 16.125C15.125 16.1084 15.1563 16.0918 15.1886 16.0747C16.1738 15.5502 17.1052 14.8479 17.8795 14.0424C17.9628 13.9591 18.0508 13.8838 18.1406 13.8077C18.2941 13.6749 18.426 13.5346 18.5568 13.3799C18.6376 13.2871 18.7198 13.197 18.804 13.1075C18.8307 13.079 18.8575 13.0506 18.885 13.0213C18.9382 12.9649 18.9915 12.9087 19.045 12.8526C19.3863 12.5077 19.3863 12.5077 19.5469 12.0674C19.5507 12.0345 19.5546 12.0016 19.5586 11.9676C19.531 11.7126 19.3769 11.5308 19.207 11.3496C19.1693 11.3089 19.1315 11.2681 19.0926 11.226C19.039 11.1683 19.039 11.1683 18.9844 11.1094C18.9343 11.052 18.8845 10.9944 18.835 10.9366C18.3059 10.3281 18.3059 10.3281 17.7166 9.78025C17.6049 9.68627 17.4999 9.58621 17.3936 9.48636C16.1887 8.38987 14.7265 7.48092 13.125 7.12504C13.0825 7.11452 13.04 7.10401 12.9963 7.09317C11.5916 6.79553 10.1382 7.20764 8.90625 7.87504Z" fill="#737373"/>
<path d="M14.7187 9.00004C14.7723 9.0469 14.7723 9.0469 14.827 9.0947C15.5598 9.77927 15.9809 10.7901 16.0408 11.7829C16.0559 12.9172 15.7116 13.9106 14.9531 14.7657C14.9243 14.799 14.8955 14.8323 14.8658 14.8666C14.1944 15.5925 13.1602 15.9878 12.1879 16.0386C11.0692 16.0691 10.0715 15.6957 9.23437 14.9532C9.20108 14.9243 9.16779 14.8955 9.13348 14.8658C8.41498 14.2014 8.01322 13.1678 7.95923 12.2053C7.94578 11.1103 8.26848 10.1129 9 9.28129C9.03124 9.24558 9.06248 9.20987 9.09466 9.17307C10.5717 7.59191 13.1356 7.60736 14.7187 9.00004ZM10.4854 10.7022C10.1027 11.1846 9.97972 11.7223 10.0312 12.3282C10.1378 12.8544 10.4246 13.3383 10.875 13.6407C11.3874 13.9378 11.8885 14.0578 12.4792 13.9382C12.995 13.7831 13.4342 13.4809 13.7064 13.0117C13.9804 12.4866 14.0693 11.9569 13.8955 11.3789C13.6804 10.8109 13.3131 10.4272 12.7683 10.1736C11.9609 9.82394 11.0743 10.0668 10.4854 10.7022Z" fill="#737373"/>
</svg>
