<svg width="24" height="24" viewBox="0 0 24 24" fill="none" xmlns="http://www.w3.org/2000/svg">
<g clip-path="url(#clip0_4_1601)">
<path d="M15.3294 1.39416C15.4988 1.53369 15.6706 1.66978 15.8437 1.80468C16.0804 1.98943 16.3143 2.17735 16.5469 2.36718C16.807 2.57941 17.069 2.78883 17.3335 2.9956C17.5633 3.17535 17.7911 3.35752 18.0186 3.54008C18.2136 3.69631 18.4096 3.851 18.6064 4.00487C18.8764 4.21605 19.1425 4.43161 19.4081 4.6483C19.6354 4.83346 19.865 5.01528 20.0961 5.19563C20.335 5.38252 20.5696 5.5744 20.8041 5.76661C20.9994 5.92577 21.1978 6.07983 21.3992 6.23109C22.3872 6.9739 23.152 7.77681 23.3684 9.05138C23.3933 9.25608 23.3973 9.45468 23.3969 9.6606C23.397 9.70249 23.3971 9.74439 23.3972 9.78755C23.3975 9.92741 23.3975 10.0673 23.3974 10.2071C23.3976 10.3076 23.3977 10.4081 23.3979 10.5086C23.3983 10.7814 23.3984 11.0541 23.3985 11.3269C23.3985 11.4975 23.3986 11.6681 23.3987 11.8387C23.3992 12.4347 23.3993 13.0306 23.3993 13.6265C23.3993 14.1808 23.3998 14.7351 23.4005 15.2895C23.4011 15.7662 23.4014 16.2429 23.4014 16.7197C23.4013 17.004 23.4015 17.2884 23.402 17.5727C23.4024 17.8405 23.4024 18.1083 23.4021 18.3761C23.402 18.4739 23.4021 18.5717 23.4024 18.6695C23.4067 20.2444 23.0492 21.5374 21.9463 22.6992C20.9903 23.618 19.7785 24.0135 18.4719 24.0157C18.4058 24.016 18.3398 24.0164 18.2737 24.0167C18.1362 24.0172 17.9987 24.0174 17.8611 24.0174C17.6866 24.0174 17.5122 24.0186 17.3377 24.0203C17.2016 24.0213 17.0654 24.0215 16.9293 24.0214C16.8342 24.0216 16.7392 24.0226 16.6442 24.0236C15.9376 24.0202 15.3379 23.8176 14.8213 23.3291C14.6332 23.1308 14.5059 22.9338 14.3906 22.6875C14.3741 22.656 14.3575 22.6245 14.3405 22.592C14.1262 22.1167 14.1766 21.5868 14.1779 21.0769C14.1774 20.9702 14.1768 20.8634 14.1762 20.7567C14.1747 20.477 14.1742 20.1972 14.174 19.9175C14.1736 19.4691 14.1719 19.0207 14.1697 18.5724C14.1691 18.4162 14.1691 18.26 14.1692 18.1038C14.1689 18.0079 14.1686 17.9119 14.1682 17.816C14.1684 17.7729 14.1686 17.7297 14.1688 17.6852C14.1671 17.2574 14.1671 17.2574 13.9512 16.9043C13.7441 16.7761 13.5692 16.7751 13.3276 16.7737C13.2966 16.7735 13.2655 16.7732 13.2336 16.773C13.1311 16.7723 13.0287 16.772 12.9263 16.7717C12.8549 16.7715 12.7834 16.7712 12.7119 16.7709C12.5622 16.7704 12.4124 16.7701 12.2626 16.77C12.0713 16.7697 11.88 16.7686 11.6886 16.7673C11.541 16.7664 11.3934 16.7661 11.2457 16.7661C11.1752 16.7659 11.1047 16.7656 11.0342 16.7649C10.9353 16.7641 10.8364 16.7642 10.7374 16.7645C10.6532 16.7643 10.6532 16.7643 10.5672 16.764C10.3427 16.788 10.1489 16.8464 9.99023 17.0156C9.9083 17.1613 9.88482 17.2795 9.88472 17.4435C9.88454 17.4824 9.88436 17.5212 9.88418 17.5612C9.88413 17.6031 9.88408 17.645 9.88403 17.6882C9.88317 17.7774 9.88225 17.8667 9.88128 17.956C9.87993 18.0962 9.8789 18.2365 9.87888 18.3768C9.87767 19.42 9.87767 19.42 9.60937 19.7344C9.33109 19.9623 9.07896 20.0396 8.71875 20.0156C8.37569 19.9328 8.16404 19.746 7.96875 19.4531C7.92348 19.3173 7.91519 19.2282 7.91358 19.0867C7.91297 19.0409 7.91237 18.995 7.91175 18.9477C7.91141 18.898 7.91106 18.8484 7.9107 18.7972C7.91032 18.7458 7.90995 18.6944 7.90956 18.6414C7.90891 18.5323 7.9084 18.4231 7.90804 18.314C7.90723 18.1487 7.90518 17.9836 7.9031 17.8184C7.89684 16.9112 8.00933 16.2143 8.65118 15.5323C9.16503 15.0365 9.78769 14.806 10.4965 14.8049C10.5327 14.8047 10.5689 14.8045 10.6061 14.8042C10.7252 14.8036 10.8442 14.8032 10.9633 14.803C11.0246 14.8028 11.0246 14.8028 11.0873 14.8026C11.304 14.8019 11.5208 14.8014 11.7375 14.8012C11.96 14.801 12.1826 14.7998 12.4051 14.7985C12.5774 14.7976 12.7497 14.7974 12.922 14.7973C13.0039 14.7972 13.0859 14.7968 13.1678 14.7962C14.0249 14.7902 14.7608 14.9284 15.4107 15.5349C15.9955 16.1195 16.1388 16.8156 16.1421 17.6148C16.1421 17.7149 16.1418 17.8151 16.1414 17.9152C16.1407 18.0742 16.141 18.2332 16.1416 18.3922C16.1431 18.8439 16.1428 19.2956 16.1419 19.7473C16.1414 20.0245 16.142 20.3017 16.1433 20.579C16.1435 20.6844 16.1434 20.7897 16.1427 20.8951C16.1418 21.0421 16.1423 21.189 16.1432 21.336C16.1426 21.3794 16.1419 21.4228 16.1413 21.4676C16.1439 21.6739 16.1521 21.7693 16.2754 21.941C16.4179 22.0393 16.4826 22.0606 16.6533 22.0608C16.7016 22.0614 16.7498 22.062 16.7995 22.0626C16.8513 22.062 16.9031 22.0614 16.9565 22.0607C17.0106 22.0608 17.0646 22.0609 17.1203 22.0611C17.235 22.061 17.3496 22.0604 17.4642 22.0592C17.6372 22.0576 17.8102 22.0583 17.9832 22.0592C19.0115 22.0585 19.9238 21.9412 20.6862 21.1836C21.1961 20.6315 21.4289 19.9608 21.4288 19.2188C21.429 19.1558 21.429 19.1558 21.4293 19.0915C21.4298 18.9511 21.43 18.8107 21.4302 18.6702C21.4305 18.5694 21.4308 18.4686 21.4311 18.3678C21.4321 18.037 21.4326 17.7062 21.433 17.3754C21.4332 17.2614 21.4334 17.1474 21.4336 17.0334C21.4345 16.4978 21.4352 15.9621 21.4356 15.4265C21.436 14.8087 21.4373 14.191 21.4392 13.5732C21.4406 13.0953 21.4413 12.6175 21.4414 12.1396C21.4415 11.8544 21.4419 11.5691 21.4431 11.2839C21.4442 11.0154 21.4444 10.747 21.4439 10.4786C21.4439 10.3803 21.4442 10.282 21.4449 10.1837C21.449 9.5178 21.428 8.95191 20.9531 8.43749C20.7012 8.18716 20.4193 7.97149 20.1394 7.75379C19.9266 7.58825 19.7173 7.41891 19.5088 7.24804C19.2528 7.03865 18.9932 6.83527 18.7295 6.63573C18.42 6.4014 18.1189 6.1586 17.8203 5.91057C17.59 5.71944 17.3566 5.53299 17.1205 5.34903C16.9115 5.18582 16.7054 5.01924 16.5 4.85155C16.1595 4.57383 15.8151 4.30158 15.4687 4.03124C15.157 3.78789 14.846 3.54388 14.54 3.2934C14.3813 3.16367 14.2221 3.03476 14.0625 2.90624C14.0287 2.87897 13.9948 2.85171 13.96 2.82362C13.3985 2.37026 13.3985 2.37026 12.75 2.06249C12.693 2.04219 12.6359 2.02189 12.5771 2.00097C11.9425 1.8673 11.2701 1.96309 10.7206 2.30529C10.466 2.4718 10.2244 2.65216 9.98437 2.83886C9.89848 2.90495 9.81254 2.97099 9.72656 3.03698C9.68366 3.06993 9.64076 3.10287 9.59655 3.13682C7.84226 4.47579 7.84226 4.47579 7.26562 4.40624C6.97398 4.32034 6.77585 4.14087 6.60937 3.89062C6.48047 3.61522 6.47544 3.33113 6.56543 3.04394C6.71558 2.69593 7.04286 2.47688 7.34765 2.2705C7.41809 2.22182 7.48846 2.17305 7.55877 2.1242C7.59516 2.09895 7.63154 2.0737 7.66903 2.04768C7.86015 1.91323 8.04766 1.77395 8.23535 1.63476C8.59702 1.36734 8.95859 1.10024 9.32812 0.843741C9.3546 0.825199 9.38108 0.806656 9.40837 0.787551C11.4103 -0.602553 13.5739 -0.0531856 15.3294 1.39416Z" fill="currentColor"/>
<path d="M3.95215 6.21644C4.16947 6.39452 4.26273 6.56773 4.3125 6.84376C4.31695 7.15057 4.26264 7.3892 4.07813 7.64063C3.98194 7.72717 3.89251 7.8009 3.78809 7.87501C3.76119 7.89501 3.7343 7.915 3.70659 7.9356C3.5871 8.02439 3.46627 8.11115 3.34497 8.19746C2.94105 8.49353 2.68475 8.88275 2.60038 9.37925C2.5763 9.57755 2.57132 9.76941 2.57154 9.96885C2.5714 10.0086 2.57126 10.0484 2.57112 10.0893C2.57072 10.2219 2.57064 10.3546 2.57057 10.4872C2.57036 10.5825 2.57012 10.6779 2.56987 10.7732C2.56925 11.0319 2.56895 11.2906 2.56874 11.5494C2.56861 11.7112 2.56841 11.8731 2.5682 12.035C2.56756 12.5423 2.56711 13.0496 2.56693 13.5568C2.56672 14.141 2.5659 14.7251 2.56454 15.3093C2.56352 15.7617 2.56305 16.2141 2.56299 16.6665C2.56294 16.9362 2.56267 17.206 2.56183 17.4758C2.56105 17.7299 2.56095 17.984 2.56136 18.2382C2.5614 18.3309 2.5612 18.4236 2.56073 18.5164C2.55757 19.1842 2.5585 19.8962 2.88574 20.499C2.90189 20.5298 2.91803 20.5605 2.93467 20.5922C3.30396 21.2643 3.91093 21.7143 4.64063 21.9375C5.00939 22.0142 5.36552 22.0447 5.74148 22.0425C5.81728 22.0426 5.81728 22.0426 5.89462 22.0428C6.00326 22.0429 6.11191 22.0429 6.22055 22.0427C6.39282 22.0424 6.56508 22.0429 6.73735 22.0435C7.22678 22.0452 7.7162 22.0461 8.20562 22.0456C8.50596 22.0453 8.80627 22.0462 9.1066 22.0477C9.22056 22.0481 9.33452 22.048 9.44848 22.0475C9.60798 22.0469 9.76741 22.0476 9.9269 22.0487C9.97343 22.0482 10.0199 22.0476 10.0679 22.047C10.3947 22.0514 10.6499 22.1272 10.9219 22.3125C11.1679 22.57 11.2205 22.8185 11.2159 23.1632C11.1882 23.4525 11.0622 23.6421 10.8486 23.833C10.6761 23.9741 10.5356 24.0058 10.315 24.0069C10.2432 24.0074 10.2432 24.0074 10.1699 24.0079C10.0911 24.0081 10.0911 24.0081 10.0107 24.0083C9.95537 24.0086 9.90002 24.0089 9.84298 24.0092C9.6591 24.0102 9.47521 24.0107 9.29132 24.0112C9.22774 24.0114 9.16416 24.0116 9.10058 24.0118C8.80124 24.0127 8.5019 24.0133 8.20256 24.0137C7.85892 24.0142 7.51528 24.0154 7.17164 24.0173C6.90503 24.0187 6.63842 24.0194 6.3718 24.0196C6.21311 24.0197 6.05443 24.0201 5.89574 24.0213C4.88913 24.0278 4.04658 23.9402 3.14063 23.4844C3.09102 23.4599 3.04141 23.4353 2.9903 23.41C2.62035 23.2113 2.33026 22.9482 2.03298 22.6561C1.98122 22.6059 1.9278 22.5573 1.8739 22.5093C1.1117 21.8169 0.702458 20.6895 0.609377 19.6875C0.603085 19.5423 0.602642 19.3974 0.602794 19.2521C0.602654 19.2098 0.602515 19.1674 0.602372 19.1238C0.601967 18.9828 0.601894 18.8418 0.601824 18.7008C0.601607 18.5994 0.601371 18.498 0.601118 18.3965C0.600505 18.1215 0.600202 17.8464 0.599993 17.5713C0.599855 17.3992 0.599663 17.2271 0.599454 17.055C0.598813 16.5159 0.59836 15.9768 0.598179 15.4376C0.597969 14.8166 0.597147 14.1955 0.595788 13.5745C0.594773 13.0936 0.594302 12.6127 0.594239 12.1318C0.59419 11.845 0.593916 11.5582 0.593076 11.2713C0.5923 11.0013 0.592204 10.7312 0.592614 10.4612C0.59265 10.3625 0.592448 10.2639 0.591982 10.1652C0.586628 8.96015 0.828704 7.89485 1.70307 7.00269C2.28509 6.44324 3.14357 5.64586 3.95215 6.21644Z" fill="currentColor"/>
</g>
<defs>
<clipPath id="clip0_4_1601">
<rect width="24" height="24" fill="white"/>
</clipPath>
</defs>
</svg>
