<svg width="48" height="48" viewBox="0 0 48 48" fill="none" xmlns="http://www.w3.org/2000/svg">
<rect opacity="0.26" width="48" height="48" rx="12" fill="#E0E6E9"/>
<path d="M34.0001 9.71436H14.0001C11.6372 9.71436 9.71436 11.6372 9.71436 14.0001V18.0444C9.71436 19.5486 10.2601 20.9158 11.1429 21.9672V35.4286C11.1429 35.8075 11.2934 36.1709 11.5613 36.4388C11.8293 36.7067 12.1926 36.8572 12.5715 36.8572H24.0001C24.379 36.8572 24.7423 36.7067 25.0102 36.4388C25.2781 36.1709 25.4286 35.8075 25.4286 35.4286V28.2858H31.1429V35.4286C31.1429 35.8075 31.2934 36.1709 31.5613 36.4388C31.8293 36.7067 32.1926 36.8572 32.5715 36.8572H35.4286C35.8075 36.8572 36.1709 36.7067 36.4388 36.4388C36.7067 36.1709 36.8572 35.8075 36.8572 35.4286V21.9658C37.7401 20.9158 38.2858 19.5486 38.2858 18.0429V14.0001C38.2858 11.6372 36.3629 9.71436 34.0001 9.71436ZM35.4286 14.0001V18.0444C35.4286 19.6729 34.2158 21.0615 32.7272 21.1401L32.5715 21.1429C30.9958 21.1429 29.7144 19.8615 29.7144 18.2858V12.5715H34.0001C34.7886 12.5715 35.4286 13.2129 35.4286 14.0001ZM21.1429 18.2858V12.5715H26.8572V18.2858C26.8572 19.8615 25.5758 21.1429 24.0001 21.1429C22.4244 21.1429 21.1429 19.8615 21.1429 18.2858ZM12.5715 14.0001C12.5715 13.2129 13.2115 12.5715 14.0001 12.5715H18.2858V18.2858C18.2858 19.8615 17.0044 21.1429 15.4286 21.1429L15.2729 21.1386C13.7844 21.0615 12.5715 19.6729 12.5715 18.0444V14.0001ZM21.1429 29.7144H15.4286V25.4286H21.1429V29.7144Z" fill="white"/>
</svg>
